<svg fill="#d1d1d1" xmlns:dc="http://purl.org/dc/elements/1.1/" xmlns:cc="http://creativecommons.org/ns#" xmlns:rdf="http://www.w3.org/1999/02/22-rdf-syntax-ns#" xmlns:svg="http://www.w3.org/2000/svg" xmlns="http://www.w3.org/2000/svg" xmlns:sodipodi="http://sodipodi.sourceforge.net/DTD/sodipodi-0.dtd" xmlns:inkscape="http://www.inkscape.org/namespaces/inkscape" version="1.1" x="0px" y="0px" viewBox="0 0 100 100"><g transform="translate(0,-952.36218)"><path style="text-indent:0;text-transform:none;direction:ltr;block-progression:tb;baseline-shift:baseline;color:#000000;enable-background:accumulate;" d="m 73.33452,979.02764 c -1.95267,-1.95267 -5.11845,-1.9526 -7.07107,10e-6 L 50,995.2911 33.73655,979.02764 c -1.95262,-1.9526 -5.1184,-1.95267 -7.07108,10e-6 -1.95267,1.95267 -1.9526,5.11845 10e-6,7.07105 l 16.26346,16.2635 -16.26346,16.2634 c -1.95261,1.9526 -1.95268,5.1184 0,7.0711 1.95267,1.9527 5.11845,1.9526 7.07107,0 l 16.26344,-16.2635 16.26346,16.2635 c 1.95262,1.9526 5.1184,1.9527 7.07108,0 1.95267,-1.9527 1.9526,-5.1185 -1e-5,-7.0711 l -16.26346,-16.2634 16.26347,-16.2635 c 1.9526,-1.9526 1.95267,-5.11838 -1e-5,-7.07106 z" fill="#000000" fill-opacity="1" stroke="none" marker="none" visibility="visible" display="inline" overflow="visible"/></g></svg>
